<?xml version="1.0" encoding="iso-8859-1"?>
<!-- Uploaded to: SVG Repo, www.svgrepo.com, Generator: SVG Repo Mixer Tools -->
<!DOCTYPE svg PUBLIC "-//W3C//DTD SVG 1.1//EN" "http://www.w3.org/Graphics/SVG/1.1/DTD/svg11.dtd">
<svg fill="#000000" height="800px" width="800px" version="1.1" id="Capa_1" xmlns="http://www.w3.org/2000/svg" xmlns:xlink="http://www.w3.org/1999/xlink" 
	 viewBox="0 0 296.999 296.999" xml:space="preserve">
<path d="M293.96,82.748L214.07,2.86c-3.814-3.813-9.997-3.813-13.813,0l-20.509,20.507c-1.831,1.832-2.86,4.316-2.86,6.907
	s1.029,5.074,2.86,6.906l1.969,1.969l-75.124,75.124c-1.832,1.832-2.861,4.316-2.861,6.907c0,2.59,1.029,5.074,2.861,6.906
	l1.972,1.972l-44.363,44.363c-3.814,3.814-3.814,9.998,0,13.813l1.97,1.97l-27.202,27.203l-1.609-1.609
	c-3.816-3.814-9.998-3.814-13.814,0L3.039,236.304c-3.814,3.814-3.814,9.998,0,13.813l44.021,44.022
	c1.908,1.907,4.407,2.86,6.907,2.86c2.499,0,4.999-0.953,6.906-2.86l20.508-20.506c1.831-1.832,2.86-4.316,2.86-6.907
	c0-2.591-1.029-5.074-2.86-6.906l-1.971-1.971l27.202-27.202l1.971,1.97c1.908,1.907,4.406,2.861,6.906,2.861s5-0.954,6.907-2.861
	l44.362-44.362l1.97,1.97c1.908,1.906,4.407,2.86,6.907,2.86c2.499,0,4.999-0.954,6.906-2.86l75.125-75.124l1.971,1.971
	c1.832,1.831,4.316,2.86,6.907,2.86c2.59,0,5.075-1.029,6.906-2.86l20.508-20.509C297.775,92.747,297.775,86.563,293.96,82.748z
	 M53.968,273.42l-30.209-30.21l6.694-6.693l30.208,30.209L53.968,273.42z M65.598,244.035L52.782,231.22l27.202-27.203L92.8,216.833
	L65.598,244.035z M115.49,211.897l-30.569-30.569l37.456-37.456l30.57,30.569L115.49,211.897z M175.637,169.504l-48.324-48.324
	l68.217-68.219l48.325,48.325L175.637,169.504z M266.546,96.35l-66.077-66.076l6.695-6.695l66.076,66.077L266.546,96.35z"/>
</svg>